<svg width="10" height="20" viewBox="0 0 10 20" fill="none" xmlns="http://www.w3.org/2000/svg">
<path d="M1.27712 5.85512C1.27712 5.85512 0.873349 4.88397 1.03715 3.77236C1.20096 2.66075 1.89712 1.75983 1.89712 1.75983C1.89712 1.75983 1.49775 2.54383 1.56358 3.22239C1.62826 3.8887 1.83857 4.35734 2.0726 4.65567C2.0726 4.65567 1.38217 3.98879 1.52263 2.68409C1.52263 2.68409 1.30027 3.09954 1.55191 3.97711C1.55191 3.97711 1.80929 4.66754 2.0726 4.97754C2.0726 4.97754 2.01404 5.56846 2.03165 5.72059C2.03165 5.72059 1.23598 5.03017 1.15407 4.1235C1.15407 4.1235 1.11905 4.7437 1.61621 5.49842C1.6164 5.49823 1.34735 5.53344 1.27712 5.85512Z" fill="#B48A00"/>
<path d="M2.24119 4.27407C2.10302 4.00483 1.9197 3.50404 1.92736 2.91446C1.9287 2.81075 1.9308 2.60561 1.99548 2.34612C2.00983 2.28833 2.06877 2.06253 2.21382 1.79137C2.26224 1.70105 2.40652 1.44405 2.6639 1.18208C3.06136 0.777739 3.50799 0.585997 3.778 0.495483C3.55698 0.589441 3.25865 0.749609 2.96855 1.02287C2.861 1.12429 2.51177 1.46989 2.28654 2.04588C2.14321 2.41233 2.10169 2.73975 2.09097 2.96441C2.09097 2.96441 2.04543 3.43726 2.14551 3.91929C2.20119 4.18681 2.24119 4.27407 2.24119 4.27407Z" fill="#B48A00"/>
<path d="M2.34506 3.5511C2.29951 2.97109 2.36151 2.53766 2.42237 2.2598C2.45432 2.11418 2.48169 2.03055 2.49508 1.99151C2.65869 1.51522 2.95664 1.22129 3.0816 1.10035C3.57397 0.623866 4.15475 0.481303 4.38667 0.42734C5.41408 0.18814 6.27539 0.555168 6.58291 0.70462C6.58291 0.70462 7.03758 0.909184 7.40136 1.25019C7.76513 1.59119 7.9651 1.84589 7.9651 1.84589C7.6151 1.50527 7.27047 1.3074 7.03758 1.19565C6.29262 0.837998 5.62534 0.847375 5.34615 0.854646C5.06983 0.861727 4.7516 0.872634 4.3639 1.01826C4.25827 1.05787 3.8434 1.22187 3.43638 1.61855C3.16369 1.88416 2.99721 2.15417 2.89981 2.34151C2.89981 2.34151 2.70424 2.65534 2.66329 3.06906C2.66329 3.06906 2.69965 2.50532 2.81791 2.16871C2.81791 2.16871 2.91799 1.87306 3.04983 1.64133C3.18168 1.40959 3.46815 1.17747 3.46815 1.17747C3.46815 1.17747 3.00888 1.35926 2.75878 1.82771C2.50867 2.29597 2.40859 2.55067 2.37682 3.05088C2.34506 3.5511 2.34506 3.5511 2.34506 3.5511Z" fill="#B48A00"/>
<path d="M2.94141 2.72378C2.93529 2.71957 3.14502 2.26949 3.55989 1.90992C3.96844 1.55572 4.40608 1.4365 4.5785 1.39153C5.12732 1.24839 5.57357 1.31843 5.81985 1.35977C6.63925 1.49716 7.22787 1.90725 7.54783 2.17745C7.58763 2.21112 7.62839 2.24366 7.66991 2.27523C7.86319 2.42258 8.45123 2.896 8.75263 3.41937C8.75263 3.41937 8.4388 2.7919 8.04364 2.39713C8.00958 2.36306 7.28317 1.67264 6.96571 1.52338C6.57916 1.34159 6.36101 1.17778 5.58792 1.09588C5.58792 1.09588 6.35183 1.03675 7.16568 1.54156C7.44143 1.71187 7.81439 1.97824 8.18869 2.37359C8.30542 2.49683 8.80085 3.03263 9.18453 3.89681C9.26394 4.07573 9.60494 4.86873 9.67096 5.9612C9.701 6.4595 9.73105 7.06114 9.45262 7.74812C9.39502 7.89049 9.33685 8.00512 9.29341 8.08453C9.35464 7.81969 9.41684 7.46854 9.43884 7.05234C9.47597 6.3533 9.38086 5.82783 9.36153 5.72468C9.1807 4.76042 8.75282 4.09238 8.5295 3.75119C8.30523 3.40865 7.88653 2.78214 7.11076 2.24155C6.80822 2.03067 6.34934 1.7178 5.66944 1.57772C5.36231 1.51438 4.93959 1.42732 4.42349 1.56854C3.7501 1.75301 3.3404 2.21036 3.21391 2.35522C3.04207 2.5527 2.94524 2.72646 2.94141 2.72378Z" fill="#B48A00"/>
<path d="M3.7907 2.12654C3.97747 2.04502 4.25533 1.94761 4.60398 1.90819C4.71402 1.89576 5.05196 1.86418 5.48156 1.94666C6.00799 2.04769 6.37138 2.26259 6.58609 2.39195C7.17758 2.74865 7.52471 3.16715 7.75472 3.44941C7.98033 3.7263 8.3732 4.2646 8.65373 5.03769C8.78768 5.40702 8.98076 5.95507 8.96622 6.69008C8.95971 7.01463 8.91474 7.28483 8.87207 7.47772C8.94153 7.34281 9.03109 7.13519 9.07759 6.86977C9.11912 6.63229 9.10438 6.44859 9.07338 6.09074C9.04028 5.7109 9.01176 5.38214 8.88508 4.96918C8.763 4.57135 8.62369 4.33559 8.63249 4.33138C8.64512 4.32545 8.94345 4.7895 9.12486 5.42309C9.15395 5.5247 9.26359 5.92254 9.2833 6.46332C9.29995 6.92354 9.33784 7.75289 8.88088 8.59526C8.69679 8.93473 8.44668 9.21144 8.39712 9.26732C8.21494 9.47245 8.05363 9.61176 7.85767 9.78093C7.68736 9.92789 7.54021 10.0542 7.32263 10.1962C7.19002 10.2827 7.06506 10.3531 6.93302 10.4273C6.80787 10.4978 6.71449 10.55 6.58628 10.6114C6.40793 10.6968 6.35454 10.7073 6.2181 10.7699C6.03076 10.8556 5.90427 10.9396 5.75999 11.0353C5.60307 11.1394 5.34263 11.3263 5.05789 11.6046C4.58963 12.0625 4.32364 12.5057 4.22318 12.6833C4.05134 12.9872 3.93843 13.265 3.86361 13.4837C3.95221 13.2974 4.06435 13.0897 4.20615 12.8716C4.29245 12.7388 4.42277 12.5398 4.63001 12.3065C4.84414 12.0654 5.03263 11.9088 5.17366 11.7929C5.44673 11.568 5.67866 11.4211 5.77721 11.3606C5.9835 11.2339 6.15802 11.1467 6.33809 11.0567C6.37444 11.0385 6.51108 10.9731 6.78338 10.8426C7.10257 10.6897 7.13433 10.6748 7.20724 10.6371C7.43209 10.5205 7.59781 10.4197 7.64813 10.3889C7.79376 10.2993 7.99277 10.1768 8.20901 9.99927C8.28479 9.93708 8.57087 9.69692 8.86404 9.30578C8.92144 9.22904 9.12773 8.94832 9.33057 8.51814C9.44921 8.26631 9.71616 7.64669 9.80572 6.79724C9.82543 6.61029 9.87862 6.01401 9.75003 5.25182C9.68478 4.86528 9.59139 4.54551 9.51026 4.30995C9.62201 4.56771 9.75405 4.92307 9.85279 5.35879C10.0367 6.1715 10.0007 6.80853 9.9898 6.96832C9.97067 7.24866 9.93201 7.75978 9.69435 8.37673C9.48729 8.91445 9.22704 9.27861 9.13347 9.40414C8.84394 9.79279 8.5548 10.0381 8.37148 10.1918C8.12347 10.3998 7.92254 10.5278 7.85786 10.5686C7.81366 10.5963 7.6334 10.7081 7.37832 10.8298C7.27556 10.8788 7.26216 10.8811 6.88595 11.0395C6.6125 11.1547 6.47414 11.2131 6.40219 11.2492C6.18347 11.3589 6.02942 11.463 5.897 11.5531C5.80266 11.6174 5.56404 11.7841 5.33613 11.9898C4.90882 12.3754 4.6124 12.8138 4.43291 13.12C4.72243 12.7076 5.01923 12.4062 5.25059 12.1995C5.50165 11.9754 5.73052 11.7711 6.0853 11.5916C6.2359 11.5154 6.31187 11.4928 6.74874 11.2833C6.84117 11.2391 6.99962 11.1624 7.19404 11.0649C7.50289 10.9101 7.67205 10.8254 7.83184 10.7352C8.03487 10.6208 8.4417 10.3881 8.86346 9.98606C9.00181 9.85422 9.17576 9.67185 9.35583 9.4338C9.35583 9.4338 9.60842 9.02276 9.67693 8.7361C9.53647 9.22139 9.31985 9.56373 9.16753 9.76772C8.88719 10.1434 8.58752 10.3678 8.3885 10.5169C8.08635 10.7433 7.79529 10.8996 7.6778 10.9622C7.54518 11.0328 7.41334 11.0965 7.17701 11.2104C7.00804 11.2919 6.96135 11.3122 6.68043 11.4458C6.3997 11.5793 6.25944 11.6459 6.20949 11.6727C5.87978 11.8486 5.65225 12.0177 5.59312 12.0623C5.52194 12.1159 5.3411 12.2556 5.1308 12.4647C4.72569 12.8676 4.49319 13.2476 4.42449 13.3638C4.31752 13.5444 4.15161 13.8286 4.03488 14.2241C3.95202 14.505 3.84754 14.9997 3.93212 15.6367C3.93556 15.3267 3.97613 14.8577 4.16749 14.3269C4.35962 13.7937 4.61623 13.4407 4.77104 13.231C5.2303 12.609 5.77281 12.1823 6.24796 11.8953C5.94867 12.1023 5.50835 12.4592 5.11357 13.0168C4.95723 13.2376 4.68225 13.6678 4.48859 14.2712C4.39827 14.5529 4.1916 15.2201 4.28747 16.0564C4.32919 16.4207 4.41511 16.6995 4.45434 16.8184C4.5238 17.0281 4.62235 17.3255 4.83534 17.6232C5.13214 18.0383 5.52117 18.2725 5.81146 18.4023C5.33842 18.2528 5.00354 18.0348 4.80128 17.88C4.33876 17.5262 4.0921 17.1374 3.91949 16.8654C3.65943 16.4556 3.52969 16.1054 3.48281 15.9708C3.45047 15.8776 3.36455 15.6205 3.29872 15.2303C3.23748 14.8677 3.13893 14.2827 3.26026 13.5308C3.30695 13.2409 3.4319 12.513 3.90667 11.8185C4.16079 11.4467 4.52055 11.0768 4.54887 11.0479C4.63116 10.9637 4.65986 10.9394 5.00699 10.607C5.32924 10.2986 5.49017 10.1441 5.58068 10.0548C5.94025 9.69902 6.2315 9.41103 6.50954 8.99731C6.59661 8.86776 6.83926 8.49288 7.03617 7.95287C7.28589 7.2678 7.32014 6.70692 7.32722 6.55307C7.3498 6.07161 7.28895 5.70573 7.27154 5.60699C7.19308 5.16284 6.96421 4.30804 6.25925 3.55236C6.02502 3.30129 5.68651 2.94651 5.12085 2.73391C4.93829 2.6654 4.56667 2.5305 4.07545 2.5791C3.69388 2.6168 3.40416 2.74903 3.23653 2.84146C3.47573 2.64263 3.83701 2.41185 4.31637 2.31235C5.13118 2.14318 5.78888 2.45644 6.07152 2.59632C6.51031 2.81313 6.80634 3.09022 6.97493 3.27163C6.8339 3.07109 6.5836 2.76702 6.18768 2.5016C5.7862 2.23236 5.40444 2.11639 5.1639 2.06281C5.1639 2.06281 4.50141 1.93384 4.08846 2.0542L3.7907 2.12654Z" fill="#B48A00"/>
<path d="M3.14587 15.3043C3.21247 15.8849 3.37818 16.3153 3.50716 16.5863C3.59882 16.7784 3.68436 16.9164 3.70943 16.9562C4.01369 17.4403 4.36082 17.7249 4.54395 17.8724C5.03536 18.2683 5.48793 18.4471 5.59356 18.4876C5.96346 18.629 6.26925 18.6755 6.45391 18.7027C6.80735 18.7548 7.11276 18.7572 7.34431 18.7458C7.09745 18.7387 6.63704 18.6912 6.15692 18.4145C5.80826 18.2136 5.59872 17.9778 5.473 17.8337C5.39588 17.7453 5.02713 17.3132 4.81051 16.6207C4.75885 16.4554 4.53955 15.7098 4.7288 14.758C4.87079 14.0435 5.17391 13.5618 5.40851 13.1965C5.91849 12.4026 6.54557 11.8599 7.07334 11.5016C6.90131 11.703 6.66919 12.0315 6.53122 12.4868C6.47266 12.6802 6.36627 13.0453 6.43229 13.5105C6.45238 13.652 6.49448 13.9287 6.67742 14.2247C6.78343 14.3963 6.92083 14.6185 7.19371 14.7152C7.26336 14.7398 7.45989 14.8062 7.68416 14.7238C7.90499 14.6426 8.01043 14.4694 8.03263 14.4312C8.11606 14.2873 8.12353 14.1499 8.12295 14.0871C8.17137 14.2052 8.23241 14.4063 8.20466 14.6507C8.19414 14.7427 8.17921 14.8749 8.09291 15.012C7.94365 15.2489 7.69335 15.3223 7.6369 15.339C7.20442 15.4659 6.81692 15.1926 6.73789 15.1367C6.41487 14.9088 6.29872 14.5917 6.21299 14.3581C6.04134 13.8894 6.06717 13.4612 6.10965 13.1965C6.00077 13.4164 5.86931 13.7314 5.78262 14.1258C5.72119 14.4051 5.60025 14.9844 5.75258 15.7045C5.80826 15.9676 5.9803 16.7323 6.61293 17.3307C6.93442 17.6347 7.22987 17.7585 7.42602 17.8167C7.60303 17.8693 7.8252 17.9319 8.0799 17.8468C8.27891 17.7804 8.40865 17.6535 8.47563 17.5758C8.38588 17.6753 8.16581 17.889 7.83457 17.9329C7.60341 17.9635 7.41779 17.8978 7.23657 17.8339C6.97785 17.7427 6.80525 17.6187 6.68163 17.5285C6.28877 17.2421 6.07081 16.9298 6.01914 16.8532C5.82434 16.5635 5.73899 16.3086 5.68369 16.1391C5.60925 15.911 5.52371 15.5644 5.52027 15.1281C5.48946 15.3229 5.46305 15.6168 5.51165 15.967C5.54706 16.2215 5.67871 16.9135 6.25164 17.5243C6.42425 17.7082 6.8219 18.1214 7.46907 18.2771C7.70062 18.3328 8.23375 18.4612 8.66928 18.1696C8.77262 18.1003 8.84572 18.0241 8.89298 17.9673C8.79826 18.1453 8.60192 18.4537 8.23911 18.6857C7.94862 18.8715 7.68722 18.9216 7.39157 18.9783C6.73712 19.1036 6.22524 19.0074 6.12248 18.9869C5.99694 18.962 5.59222 18.8734 5.13315 18.6084C4.64269 18.3252 4.35125 17.9908 4.13941 17.7436C4.00451 17.5861 3.76779 17.3065 3.55864 16.8919C3.26165 16.3027 3.1675 15.7336 3.14587 15.3043Z" fill="#B48A00"/>
<path d="M8.66968 15.9535C8.63064 15.5526 8.39795 15.2886 8.30839 15.1963C8.28887 15.2639 8.17846 15.6202 7.83095 15.7813C7.61931 15.8795 7.4224 15.8577 7.32767 15.8458C7.01882 15.8075 6.8156 15.6399 6.6738 15.5232C6.38178 15.2824 6.24439 15.0107 6.18334 14.8865C5.99849 14.5109 5.96787 14.1597 5.96826 13.9445L5.92099 14.366C5.81765 15.2736 6.17473 16.0437 6.17473 16.0437C6.25223 16.2415 6.48014 16.6245 6.95759 16.861C7.14091 16.9519 7.54736 17.1685 7.99858 17.0202C8.08278 16.9924 8.36771 16.8941 8.54491 16.6028C8.707 16.3368 8.68097 16.0701 8.66968 15.9535ZM8.10727 16.2919C7.82827 16.5226 7.43943 16.5791 7.10723 16.4352C6.91816 16.3533 6.71418 16.1954 6.55764 15.8975C6.55764 15.8975 6.78096 16.2731 7.38068 16.328C7.62983 16.3508 7.88128 16.2829 8.0757 16.1258C8.21769 16.011 8.35068 15.8347 8.39871 15.5662C8.39871 15.5664 8.46435 15.9964 8.10727 16.2919Z" fill="#B48A00"/>
<path d="M8.0747 16.1262C7.88008 16.2835 7.62864 16.3515 7.37968 16.3285C6.77996 16.2736 6.55664 15.898 6.55664 15.898C6.71336 16.1959 6.91716 16.3538 7.10623 16.4357C7.43843 16.5796 7.82727 16.5231 8.10627 16.2923C8.46354 15.9967 8.39771 15.5667 8.39771 15.5667C8.34968 15.8352 8.21688 16.0114 8.0747 16.1262Z" fill="#B48A00"/>
<path d="M8.21772 10.8217C8.34766 10.7679 8.5327 10.681 8.73822 10.5463C8.9734 10.3921 9.28015 10.191 9.50825 9.80633C9.68564 9.50723 9.7375 9.2288 9.74918 9.16106C9.78209 8.96989 9.76908 8.85584 9.77922 8.85565C9.80046 8.85508 9.91738 9.35931 9.74477 9.87943C9.67091 10.1024 9.56566 10.2623 9.51687 10.3354C9.36244 10.5668 9.19404 10.7157 8.99637 10.8904C8.87466 10.9979 8.78032 11.0682 8.70818 11.1183C8.5993 11.1939 8.50897 11.2457 8.46726 11.2689C8.38593 11.3142 8.34632 11.3311 8.2736 11.3678C8.2736 11.3678 8.10119 11.4553 7.93815 11.5615C7.79233 11.6564 7.58528 11.7913 7.43047 12.0389C7.38129 12.1176 7.29154 12.2645 7.26265 12.4777C7.25059 12.5669 7.21921 12.8149 7.35737 13.0671C7.41401 13.1706 7.52041 13.3647 7.73588 13.4112C7.8815 13.4425 8.00666 13.3915 8.06292 13.3639C7.98522 13.4462 7.8151 13.5998 7.60269 13.5918C7.23241 13.578 6.99321 13.0836 6.94021 12.7443C6.85964 12.2284 7.17118 11.8244 7.24141 11.7333C7.44827 11.4652 7.74908 11.2836 7.85223 11.2214C7.95786 11.1577 8.15572 11.0496 8.18768 11.0322C8.42267 10.9038 8.46075 10.8919 8.59202 10.8127C8.77649 10.7017 8.90872 10.6007 8.96192 10.5589C9.09568 10.4543 9.21452 10.3611 9.34043 10.2105C9.41583 10.1203 9.50558 9.99558 9.58556 9.83197C9.49295 9.96726 9.36703 10.123 9.19844 10.275C8.83811 10.6003 8.45846 10.7499 8.21772 10.8217Z" fill="#B48A00"/>
<path d="M6.80675 12.2886C6.80675 12.2886 6.65749 12.9056 6.85497 13.3625C6.86799 13.3924 6.87985 13.4228 6.89095 13.4536C6.93611 13.5794 7.08594 13.9236 7.40054 14.0181C7.78766 14.1343 7.83512 13.8417 7.83512 13.8417C7.83512 13.8417 7.83933 14.3236 7.49966 14.3967C7.15981 14.4698 6.87583 14.0224 6.87583 14.0224C6.87583 14.0224 6.64352 13.6653 6.65653 13.1448C6.66916 12.6241 6.80675 12.2886 6.80675 12.2886Z" fill="#B48A00"/>
<path d="M7.28394 17.2267C7.28394 17.2267 7.75277 17.5279 8.38521 17.1795C9.01766 16.831 8.9746 16.1857 8.9746 16.1857C8.9746 16.1857 9.01325 15.5963 8.57026 15.2092C8.57026 15.2092 9.07353 15.5964 9.08214 16.2158C9.09075 16.8352 8.72086 17.1622 8.72086 17.1622C8.72086 17.1622 8.60432 17.296 8.31364 17.3712C8.00402 17.4514 7.67603 17.4143 7.38727 17.2771C7.35531 17.2619 7.32106 17.2453 7.28394 17.2267Z" fill="#B48A00"/>
<path d="M2.6112 7.64791C2.61044 7.64389 2.61599 7.64236 2.61714 7.64619C2.69215 7.87965 2.77941 8.11846 2.88121 8.3613C2.89748 8.40014 2.91393 8.4388 2.93077 8.47688C2.93077 8.47688 3.11677 8.86304 3.6677 9.29188C3.90231 9.47463 3.79859 9.37837 4.34052 9.78387C4.43352 9.85352 4.56786 9.95494 4.76515 9.99417C4.82849 10.0068 4.91479 10.0231 5.02157 10.0026C5.0541 9.99628 5.09697 9.98518 5.32009 9.8849C5.37367 9.86079 5.41902 9.83993 5.4527 9.82443C5.45577 9.8229 5.45864 9.82711 5.45634 9.8296C5.20298 10.105 4.98502 10.2385 4.8281 10.3097C4.77931 10.3319 4.69913 10.3648 4.58431 10.4274C4.5248 10.4599 4.34913 10.5566 4.18054 10.6965C3.95971 10.88 3.83361 11.0692 3.73066 11.2263C3.64799 11.3526 3.64167 11.3813 3.36057 11.937C3.1495 12.3544 3.12022 12.4028 3.07888 12.4627C3.02875 12.5352 2.86839 12.7582 2.59953 12.9715C2.2149 13.2768 1.83524 13.3824 1.59451 13.4467C1.16452 13.5617 0.779698 13.5682 0.490744 13.5447C0.486726 13.5443 0.487109 13.5383 0.491127 13.5383C0.773766 13.5315 1.18653 13.4802 1.62819 13.2701C1.86241 13.1587 2.34349 12.9224 2.6711 12.3954C2.84543 12.1148 2.89882 11.8768 2.99067 11.4661C3.14376 10.782 3.11697 10.2357 3.10836 10.0952C3.08673 9.73909 3.00426 9.37704 2.8393 8.65293C2.77922 8.38904 2.72525 8.17223 2.68794 8.02642L2.6112 7.64791Z" fill="#B48A00"/>
<path d="M5.06702 7.07547C5.06702 7.07547 5.16174 6.73505 5.40056 7.14915C5.40056 7.14915 5.18643 6.98056 5.06702 7.07547Z" fill="#B48A00"/>
<path d="M4.76191 7.05787C4.76191 7.05787 4.64614 6.76298 4.43201 7.13862C4.43201 7.13862 4.66374 6.98056 4.76191 7.05787Z" fill="#B48A00"/>
<path d="M4.66406 7.63959C4.7739 7.70542 4.90977 7.73852 5.03396 7.69814C5.07568 7.68704 5.11395 7.66638 5.15433 7.64667L5.15547 7.6482C5.0841 7.70101 4.99837 7.73756 4.90805 7.73431C4.82136 7.73144 4.72491 7.6968 4.66406 7.63959Z" fill="#B48A00"/>
<path d="M4.02808 8.05451C4.02808 8.05451 4.44103 7.82449 4.66932 7.8754C4.72482 7.88783 4.78108 7.89664 4.83791 7.89664H5.02066C5.0662 7.89664 5.11175 7.89224 5.15576 7.88037C5.22427 7.86181 5.40663 7.85741 5.8326 8.06522C5.8326 8.06522 5.48853 8.00208 5.30253 8.05814C5.17757 8.09584 5.09051 8.10981 5.04688 8.11498C5.02946 8.11708 5.01205 8.11785 4.99444 8.11747L4.74663 8.11192C4.71716 8.11134 4.68769 8.10752 4.65899 8.10063L4.46648 8.05508C4.45423 8.05221 4.4418 8.04992 4.42936 8.04858C4.36697 8.04111 4.17351 8.02255 4.02808 8.05451Z" fill="#B48A00"/>
<path d="M4.3761 8.39417C4.66103 8.53788 5.01562 8.61576 5.31376 8.46803C5.35663 8.44928 5.39547 8.42306 5.43508 8.3978L5.43623 8.39933C5.211 8.58495 4.901 8.6039 4.63195 8.51204C4.54469 8.48162 4.4492 8.44545 4.3761 8.39417Z" fill="#B48A00"/>
<path d="M2.19556 5.11292C2.19556 5.11292 2.44126 4.54784 2.73959 4.35476C3.01056 4.17947 3.94191 4.47608 4.11049 4.53196C4.12293 4.53617 4.13556 4.53942 4.148 4.54305C4.18665 4.55396 4.31142 4.61864 4.32616 5.00079L3.03582 4.52296C3.00654 4.51205 2.97573 4.50631 2.94454 4.50689C2.84159 4.50842 2.6131 4.54191 2.43399 4.78685C2.19556 5.11292 2.19556 5.11292 2.19556 5.11292Z" fill="#B48A00"/>
<path d="M5.49942 4.99701C5.49942 4.99701 5.48545 4.57927 5.72408 4.52665C5.9627 4.47403 6.78766 4.28094 6.78766 4.28094L6.90706 4.48455C6.90687 4.48455 6.01533 4.76891 5.49942 4.99701Z" fill="#B48A00"/>
<path d="M3.69782 5.55859C3.69782 5.60509 3.66012 5.64279 3.61362 5.64279C3.56712 5.64279 3.52942 5.60509 3.52942 5.55859" fill="#B48A00"/>
<path d="M4.12817 5.70882C4.13056 5.70842 4.13572 5.70782 4.14346 5.70782L4.12817 5.70882Z" fill="#B48A00"/>
<path d="M3.62147 5.50846C3.61286 5.50846 3.60425 5.50865 3.59583 5.50884C3.60042 5.50807 3.6052 5.50769 3.60999 5.50769C3.61381 5.50769 3.61783 5.50788 3.62147 5.50846Z" fill="#B48A00"/>
<path d="M5.69884 5.70026C5.69884 5.70026 5.56087 5.71347 5.42749 5.7925C5.42749 5.7925 5.74342 5.20445 6.31061 5.22205C6.31061 5.22205 6.54828 5.18952 6.9622 5.44384C6.96621 5.44633 6.97023 5.4492 6.97406 5.45207C6.9976 5.47006 7.10323 5.54124 7.28043 5.53359L7.30052 5.62353L7.09328 5.63003C7.00659 5.63271 6.92182 5.65663 6.84681 5.6995C6.74787 5.75614 6.60072 5.83039 6.49757 5.83842C6.3286 5.85163 6.15944 5.89774 5.91029 5.75289C5.91029 5.75289 6.43749 5.98539 6.68874 5.59272C6.68874 5.59272 6.28842 5.34912 5.78342 5.59272L5.58766 5.68916L5.69884 5.70026Z" fill="#B48A00"/>
<path d="M5.67285 5.48441C5.67285 5.48441 5.98228 5.15756 6.18397 5.10054C6.25669 5.08006 6.32941 5.07088 6.39275 5.06743C6.53053 5.06016 6.66677 5.09996 6.77719 5.18263C6.8545 5.24042 6.94635 5.32596 7.03514 5.44939C7.03514 5.44939 6.69069 5.11585 6.35715 5.16847C6.02361 5.2211 5.90076 5.33304 5.90076 5.33304L5.67285 5.48441Z" fill="#B48A00"/>
<path d="M4.39924 5.47019C4.34452 5.53659 4.24424 5.53755 4.19889 5.53429C4.18224 5.51286 4.15928 5.48473 4.13115 5.45239C4.16253 5.39824 4.20253 5.27022 4.2054 5.26122C4.17229 5.33604 4.12522 5.38331 4.09288 5.40914C4.0835 5.399 4.07393 5.38867 4.0636 5.37795C4.11278 5.23749 4.07068 5.10756 4.07068 5.10756C4.06819 5.1975 4.03088 5.26735 3.99796 5.31155C3.97002 5.28457 3.93998 5.2572 3.90821 5.23061C3.90936 5.02719 3.86267 4.98203 3.86267 4.98203C3.87875 5.05895 3.86975 5.13148 3.85502 5.18755C3.80488 5.1487 3.75149 5.11254 3.69581 5.08192C3.66327 4.95562 3.60663 4.90797 3.60663 4.90797C3.62213 4.95792 3.62711 5.0048 3.62596 5.04709C3.55879 5.01705 3.48895 4.99638 3.41814 4.98987C3.39728 4.98796 3.37681 4.9872 3.35672 4.98777C3.36514 4.94069 3.38198 4.91084 3.38465 4.90625C3.36514 4.93094 3.35098 4.95907 3.34083 4.98834C3.22525 4.99408 3.12441 5.03676 3.04002 5.09321C3.00385 5.00844 3.00327 4.93859 3.00327 4.93859C2.99715 5.01054 2.99753 5.07044 3.00194 5.12038C2.92463 5.17875 2.86339 5.24706 2.81976 5.30351C2.74322 5.20707 2.70992 5.08613 2.70992 5.08613C2.70896 5.19118 2.74877 5.27653 2.79354 5.33891C2.76178 5.38369 2.74437 5.41546 2.74245 5.4189L2.80598 5.35518C2.84292 5.40302 2.88157 5.43555 2.90166 5.45086C2.88827 5.45794 2.87449 5.46445 2.86071 5.47057C2.62878 5.45966 2.4424 5.2727 2.4424 5.2727C2.51933 5.40283 2.66533 5.49334 2.71126 5.51937C2.64735 5.53276 2.58075 5.53697 2.51186 5.52932C2.32548 5.50903 2.16799 5.45794 2.14771 5.45163C2.18368 5.47057 2.6372 5.70652 2.90664 5.63246C2.90664 5.63246 2.91697 5.64318 2.93687 5.65944C2.90415 5.66824 2.7591 5.7113 2.71604 5.78861C2.72236 5.78115 2.77919 5.72106 3.01169 5.71474L3.00921 5.71264C3.0249 5.72278 3.04212 5.73331 3.06107 5.74364C3.03045 5.78172 2.96462 5.87606 2.99696 5.95471C2.99696 5.95471 3.01074 5.83798 3.1533 5.78784C3.17148 5.79531 3.19062 5.80258 3.21071 5.80909C3.19406 5.83128 3.16383 5.88085 3.17033 5.94361C3.17033 5.94361 3.1799 5.8751 3.27003 5.8265H3.27022C3.30409 5.8353 3.34007 5.84257 3.37834 5.84755C3.40169 5.85061 3.42446 5.85252 3.44685 5.85386C3.43804 5.87415 3.41661 5.93328 3.40953 6.0412C3.41221 6.01824 3.42924 5.89692 3.49928 5.85539C3.59056 5.85539 3.67246 5.84257 3.73905 5.82631C3.73905 5.82631 3.73944 5.82631 3.7402 5.82612C3.74805 5.82497 3.7911 5.82382 3.82899 5.92715C3.82899 5.92715 3.83971 5.87568 3.81005 5.8066C3.87377 5.78631 3.91281 5.76679 3.91759 5.76431C3.90362 5.76833 3.6185 5.84774 3.39154 5.77502C3.15904 5.70058 3.13053 5.57984 3.13053 5.57984C3.13053 5.57984 3.22238 5.55228 3.35461 5.53123C3.4258 5.52013 3.50866 5.51076 3.59534 5.50865C3.59534 5.50865 3.59553 5.50865 3.59572 5.50865C3.60032 5.50789 3.6051 5.5075 3.60989 5.5075C3.61371 5.5075 3.61773 5.50769 3.62137 5.50827C3.62156 5.50827 3.62175 5.50827 3.62175 5.50827C3.70308 5.50788 3.78689 5.5142 3.8665 5.53181C3.91338 5.54214 3.95893 5.55649 4.0016 5.57544L4.24061 5.70058L4.14263 5.70824C4.17688 5.70747 4.26338 5.71436 4.38087 5.78804C4.37839 5.78287 4.33552 5.6981 4.24635 5.5961C4.39714 5.55592 4.39924 5.47019 4.39924 5.47019ZM3.04059 5.36264C3.01763 5.38006 2.99409 5.3967 2.9694 5.41201C2.91678 5.39709 2.87334 5.36417 2.83775 5.32495C2.89803 5.27385 2.95524 5.23348 3.0138 5.2019C3.03102 5.28151 3.05877 5.32207 3.07465 5.33968C3.0626 5.34695 3.05131 5.35461 3.04059 5.36264ZM3.19597 5.28572C3.14584 5.25089 3.10871 5.21032 3.08135 5.16956C3.1533 5.13952 3.22946 5.12096 3.31749 5.11062C3.31366 5.1688 3.31883 5.22104 3.32323 5.25204C3.28323 5.26007 3.23922 5.27117 3.19597 5.28572ZM3.57716 5.23577C3.56587 5.23443 3.55439 5.23328 3.54272 5.23233C3.49794 5.22869 3.45278 5.2306 3.40838 5.23711C3.38006 5.19042 3.36456 5.14641 3.3571 5.1066C3.36475 5.10584 3.37241 5.10526 3.38025 5.10469C3.39193 5.10373 3.44857 5.10278 3.46043 5.10239C3.50751 5.10048 3.55994 5.11215 3.61486 5.13301C3.60414 5.17932 3.58807 5.21491 3.57716 5.23577ZM3.81521 5.2928C3.78441 5.28132 3.75207 5.27098 3.71839 5.26218C3.718 5.23194 3.71628 5.20401 3.71341 5.17836C3.75379 5.1998 3.79436 5.22448 3.83435 5.25089C3.82631 5.27117 3.81904 5.28572 3.81521 5.2928ZM3.95682 5.35843C3.93998 5.34906 3.92257 5.33987 3.90439 5.33088C3.90515 5.32054 3.90573 5.31059 3.90611 5.30103C3.92716 5.31633 3.94783 5.33183 3.96792 5.34733C3.96352 5.35193 3.95988 5.35556 3.95682 5.35843ZM4.06532 5.42866C4.05977 5.42445 4.05384 5.42024 4.04791 5.41622C4.04848 5.41508 4.04906 5.41393 4.04944 5.41297C4.05537 5.41795 4.06111 5.42292 4.06685 5.42771C4.06628 5.42809 4.0659 5.42847 4.06532 5.42866Z" fill="#B48A00"/>
<path d="M5.57875 5.59279C5.57875 5.59279 5.4471 5.55988 5.41418 5.45233C5.41418 5.45233 5.47121 5.54878 5.63788 5.52256" fill="#B48A00"/>
<path d="M5.71694 5.448C5.71694 5.448 5.627 5.39748 5.61609 5.2287C5.61609 5.2287 5.61819 5.32954 5.76535 5.39977" fill="#B48A00"/>
<path d="M5.78971 5.37779C5.78971 5.37779 5.71508 5.25494 5.75239 5.08386C5.75239 5.08386 5.74359 5.25283 5.85764 5.31196" fill="#B48A00"/>
<path d="M5.93319 5.24898C5.93319 5.24898 5.88267 5.0559 5.93759 4.90894C5.93759 4.90894 5.89588 5.0515 6.00342 5.21607" fill="#B48A00"/>
<path d="M6.11619 5.25659C6.11619 5.25659 6.08328 5.057 6.20613 4.91425C6.20613 4.91425 6.1315 5.16875 6.23904 5.23898" fill="#B48A00"/>
<path d="M6.38586 5.24109C6.38586 5.24109 6.55483 5.12034 6.42968 4.91425C6.42968 4.91425 6.53283 4.98888 6.50642 5.25659" fill="#B48A00"/>
<path d="M6.60278 5.27902C6.60278 5.27902 6.81117 5.11446 6.81117 4.93018C6.81117 4.93018 6.84409 5.16497 6.75415 5.33605" fill="#B48A00"/>
<path d="M6.849 5.38224C6.849 5.38224 7.0727 5.3055 7.11671 5.09271C7.11671 5.09271 7.15843 5.21116 6.93014 5.43276" fill="#B48A00"/>
<path d="M6.03348 5.81458C6.03348 5.81458 5.97416 5.85629 6.00497 5.93743C6.00497 5.93743 6.02468 5.84959 6.0972 5.82988" fill="#B48A00"/>
<path d="M6.2981 5.845C6.2981 5.845 6.39454 5.89112 6.41004 6.02718C6.41004 6.02718 6.43855 5.95924 6.38153 5.8429" fill="#B48A00"/>
<path d="M6.54175 5.82098C6.54175 5.82098 6.60107 5.83629 6.63398 5.95264C6.63398 5.95264 6.63609 5.82098 6.60318 5.80127" fill="#B48A00"/>
<path d="M6.65417 5.7849C6.65417 5.7849 6.79903 5.81341 6.84936 5.97358C6.84936 5.97358 6.85587 5.79581 6.77033 5.72998" fill="#B48A00"/>
<path d="M6.81799 5.6904C6.81799 5.6904 6.98256 5.66476 7.12073 5.78321C7.12073 5.78321 7.03959 5.64945 6.91674 5.64716" fill="#B48A00"/>
<path d="M6.93408 5.47141C6.93408 5.47141 7.07397 5.4827 7.22303 5.41248C7.22303 5.41248 7.17692 5.48711 7.09368 5.53322" fill="#B48A00"/>
<path d="M4.8092 7.13251C4.8092 7.13251 4.89857 7.2035 4.98277 7.1394C4.98296 7.1394 4.90775 7.24905 4.8092 7.13251Z" fill="#B48A00"/>
<path d="M1.90281 5.67304C1.90281 5.67304 1.64945 5.54023 1.50459 5.74212C1.3693 5.93061 1.49043 6.2586 1.50708 6.30127C1.50823 6.30433 1.50957 6.30701 1.51091 6.30988C1.53138 6.35141 1.70475 6.6838 1.76561 6.75843C1.82378 6.82981 2.01284 7.10077 2.04652 7.16354C2.0802 7.2265 2.19138 7.43852 2.19138 7.43852C2.19138 7.43852 2.28496 7.65648 2.46636 7.58778C2.61467 7.53152 2.46081 7.30323 2.39977 7.2219C2.38638 7.20411 2.37107 7.18822 2.35365 7.17445C2.28228 7.1178 2.06834 6.94194 1.99677 6.81852C1.91046 6.66926 1.86798 6.50698 1.86798 6.50698C1.86798 6.50698 1.8431 6.21592 2.03025 6.20138C2.03025 6.20138 2.1267 6.20923 2.1112 6.41628C2.10986 6.43484 2.10584 6.45321 2.09991 6.47082C2.08556 6.51406 2.06164 6.61663 2.11656 6.70734C2.11656 6.70734 2.22047 6.9253 2.38714 7.06575C2.38714 7.06575 2.08441 6.83172 1.99811 6.74829C1.99811 6.74829 2.08881 6.90482 2.33012 7.0935C2.57142 7.28218 2.58309 7.43718 2.58309 7.43718C2.58309 7.43718 2.6072 7.63409 2.42178 7.64768C2.33184 7.65419 2.24573 7.60998 2.1931 7.53669C2.15368 7.48177 2.10584 7.41154 2.07905 7.35968C2.07618 7.35413 2.07599 7.34763 2.07389 7.34169C2.05685 7.29749 1.97553 7.10001 1.81689 6.92089C1.63701 6.71767 1.46555 6.40614 1.46555 6.40614C1.46555 6.40614 1.31036 6.11795 1.42632 5.76699C1.5287 5.45699 1.90281 5.67304 1.90281 5.67304Z" fill="#B48A00"/>
<path d="M1.96844 5.93813C1.96844 5.93813 1.77536 5.71884 1.63203 5.99593C1.4887 6.27301 1.86529 6.80251 1.86529 6.80251C1.86529 6.80251 1.72197 6.33444 1.83028 6.20872C1.83028 6.20872 1.73517 6.25407 1.77899 6.59048C1.77899 6.59048 1.63126 6.39893 1.67508 6.07419C1.7191 5.74945 1.96844 5.93813 1.96844 5.93813Z" fill="#B48A00"/>
<path d="M3.59303 5.30969C3.46157 5.30969 3.35498 5.41628 3.35498 5.54774C3.35498 5.67921 3.46157 5.78579 3.59303 5.78579C3.7245 5.78579 3.83108 5.67921 3.83108 5.54774C3.83108 5.41609 3.7245 5.30969 3.59303 5.30969ZM3.59973 5.70083C3.55208 5.70083 3.51343 5.66218 3.51343 5.61453C3.51343 5.56688 3.55208 5.52822 3.59973 5.52822C3.64738 5.52822 3.68603 5.56688 3.68603 5.61453C3.68603 5.66218 3.64738 5.70083 3.59973 5.70083Z" fill="#B48A00"/>
<path d="M6.23415 5.30133C6.10268 5.30133 5.99609 5.40792 5.99609 5.53938C5.99609 5.67085 6.10268 5.77743 6.23415 5.77743C6.36561 5.77743 6.4722 5.67085 6.4722 5.53938C6.4722 5.40792 6.36561 5.30133 6.23415 5.30133ZM6.24084 5.69247C6.19319 5.69247 6.15454 5.65382 6.15454 5.60617C6.15454 5.55852 6.19319 5.51986 6.24084 5.51986C6.28849 5.51986 6.32715 5.55852 6.32715 5.60617C6.32715 5.65382 6.28849 5.69247 6.24084 5.69247Z" fill="#B48A00"/>
</svg>
