<svg width="11" height="19" viewBox="0 0 11 19" fill="none" xmlns="http://www.w3.org/2000/svg">
<path d="M2.61322 4.80352C2.69535 4.94967 1.88599 4.46706 1.56013 3.8012C1.4961 3.67094 1.19541 3.02143 1.44886 2.24209C1.6608 1.58992 2.15887 1.25611 2.55229 0.996924C3.66543 0.264394 4.87616 0.279407 5.44797 0.328861C5.44797 0.328861 4.75959 0.409664 4.15202 0.784539C4.15202 0.784539 6.19507 0.342107 7.60317 1.09142C7.6875 1.13645 7.77184 1.18105 7.85882 1.22167C8.0222 1.29806 8.36661 1.49411 8.78784 1.93124C9.34508 2.50923 9.74379 3.22056 9.96501 3.99195C10.1765 4.72934 10.4026 5.81775 10.2979 6.85893C10.2979 6.85893 9.52832 7.02098 8.95121 6.49465C8.60063 6.17497 8.47434 5.91887 8.42931 5.76698C8.37102 5.57137 8.30258 5.3793 8.21383 5.19561C8.06238 4.88123 7.84204 4.46441 7.6354 4.21714C7.27112 3.78177 6.96734 3.18436 6.08645 3.06293C6.08645 3.06293 5.39807 3.04262 5.23602 3.2656C5.23602 3.2656 6.57259 3.20467 7.12938 4.41981C7.68618 5.63495 7.83807 5.74622 7.83807 5.74622C7.83807 5.74622 8.47611 7.47754 10.7439 7.11326C10.7439 7.11326 10.5717 7.40689 9.74159 7.82194C9.74159 7.82194 9.19495 10.3127 9.0329 10.6165C9.0329 10.6165 9.20511 8.41936 8.82008 7.90319C8.82008 7.90319 7.79745 7.79192 6.94702 6.83994C6.94702 6.83994 7.32146 7.57909 8.05045 7.98399C8.05045 7.98399 7.30115 8.05508 6.39995 6.77901C6.39995 6.77901 5.76191 5.13865 5.62017 4.86533C5.47843 4.59201 4.63817 4.22729 4.62801 5.20974C4.62801 5.20974 3.73696 4.71344 4.09153 3.57954C4.09153 3.57954 4.14231 2.8607 5.48859 2.46596C5.48859 2.46596 4.44565 2.44565 3.85839 3.15433C3.27113 3.86302 3.72681 5.02738 3.96966 5.26008C3.96966 5.26008 2.78499 5.02738 2.49136 3.29607C2.4918 3.29474 2.18801 4.04405 2.61322 4.80352Z" fill="#B48A00"/>
<path d="M1.11469 3.84177C1.11469 3.84177 1.14515 4.5403 1.65117 4.89486C1.65117 4.89486 1.28689 5.02644 1.16503 5.89718C1.06656 6.60321 1.0277 7.49558 1.01666 7.80776C1.01446 7.87178 0.995911 7.9336 0.965444 7.99012C0.869187 8.16939 0.671371 8.77828 0.820615 10.6456C0.820615 10.6456 0.142397 8.50938 0.0209707 7.51722C-0.100455 6.52506 0.345069 4.66216 0.345069 4.66216C0.345069 4.66216 0.486806 3.9835 1.11469 3.84177Z" fill="#B48A00"/>
<path d="M0.74026 10.8369C0.737169 10.8227 0.733635 10.8095 0.730103 10.7971C0.730103 10.7976 0.733195 10.8117 0.74026 10.8369Z" fill="#B48A00"/>
<path d="M9.12146 10.9181C9.13294 10.8885 9.14089 10.8616 9.14398 10.8382C9.15149 10.7795 9.13868 10.8254 9.12146 10.9181Z" fill="#B48A00"/>
<path d="M9.34602 12.873C9.33409 12.8196 9.25373 12.4725 9.14334 11.982C9.09698 11.7762 9.06651 11.6362 9.06254 11.4455C9.05945 11.2927 9.09521 11.0547 9.12126 10.9183C8.98041 11.2821 8.25274 12.053 8.25274 12.053C7.64473 12.707 7.88846 13.2479 7.88846 13.2479C8.23287 13.2276 8.40463 13.0253 8.40463 13.0253C8.40463 13.0253 8.5159 12.7419 8.41479 13.066C8.31367 13.3901 7.67563 13.3697 7.67563 13.3697C7.67563 13.3697 7.17933 13.3088 6.27857 12.6204C5.37737 11.9321 4.8612 12.5092 4.8612 12.5092C4.03109 11.861 3.00846 12.9547 3.00846 12.9547C3.00846 12.9547 2.54263 13.4002 1.98583 13.3596C1.42904 13.319 1.44935 13.1167 1.44935 13.1167C2.02646 13.2788 2.00615 13.1975 2.00615 13.1975C1.97568 12.6712 1.6114 12.0941 1.22637 11.6989C0.905805 11.37 0.775109 10.9637 0.740227 10.8375C0.830744 11.245 0.679293 12.2862 0.679293 12.2862C0.679293 12.2862 0.557865 12.59 0.486776 13.795C0.415686 14.9999 0.993234 15.6477 0.993234 15.6477C1.13497 14.7465 1.23609 14.9085 1.23609 14.9085C1.13497 15.3236 1.25639 16.1943 1.25639 16.1943C1.62067 17.4293 2.08651 17.6219 2.08651 17.6219C1.8335 17.2775 1.93462 16.9233 1.93462 16.9233C2.09666 17.4598 2.40045 17.7331 2.40045 17.7331C2.40045 17.7331 2.99786 18.2899 3.33212 18.3813C3.66637 18.4723 3.84829 18.6953 3.84829 18.6953C3.82798 18.1893 3.79751 18.1588 3.79751 18.1588C4.87092 19.1611 5.12392 18.9889 5.12392 18.9889C5.2555 18.2294 5.85292 18.2497 5.85292 18.2497C5.61007 18.4524 5.76196 18.6953 5.76196 18.6953C5.87323 18.4626 6.45033 18.3208 6.45033 18.3208C6.45033 18.3208 6.94664 18.1385 7.37185 17.764C7.79706 17.3896 7.88802 16.9035 7.88802 16.9035C7.94895 17.258 7.75644 17.6223 7.75644 17.6223C7.75644 17.6223 8.28277 17.0452 8.49559 16.5387C8.70842 16.0327 8.67795 14.8582 8.67795 14.8582C8.91065 15.0101 8.95127 15.6481 8.95127 15.6481C9.28375 15.0441 9.38311 14.5142 9.4171 14.1901C9.43521 14.0153 9.48599 13.4894 9.34602 12.873ZM6.50111 14.0374C6.50111 14.0374 6.84552 14.6856 6.29844 14.8979C5.7518 15.1108 5.42771 14.7765 5.42771 14.7765L5.26566 14.4829L5.11377 14.6653C5.11377 14.6653 5.04268 14.4727 5.10361 14.4021C5.16454 14.331 4.8506 14.6246 4.96187 14.7465C5.07315 14.8684 4.77951 14.7871 4.74905 14.4224C4.74905 14.4224 4.65809 14.4427 4.68811 14.6653L4.54638 14.5134C4.54638 14.5134 4.36402 14.9893 3.75645 14.9487C3.14888 14.9081 3.16918 14.4021 3.16918 14.4021C3.16918 14.4021 3.2703 14.0475 3.38201 13.9972C3.38201 13.9972 2.4605 14.21 2.09622 13.9972C1.73194 13.7844 1.53943 13.4506 1.53943 13.4506C1.53943 13.4506 2.59252 14.4833 4.11101 13.3896C4.11101 13.3896 4.10086 13.572 3.66549 13.7844C3.66549 13.7844 4.65765 13.7844 4.85016 13.0351C4.85016 13.0351 4.95128 13.6223 6.10548 13.8347C6.10548 13.8347 5.74121 13.5614 5.68027 13.4196C5.68027 13.4196 7.24954 14.4524 8.20152 13.4806C8.20196 13.4806 7.91849 14.331 6.50111 14.0374Z" fill="#B48A00"/>
<path d="M8.7992 8.69145L7.68561 8.55986C7.20344 8.5082 6.81532 8.5082 6.54156 8.51924C6.36053 8.52675 6.25191 8.53779 6.12651 8.57002C5.77945 8.65877 5.52335 8.88882 5.3772 9.0257C4.48615 8.91443 4.55724 9.08663 4.46584 8.98508C4.37488 8.88396 3.94967 8.7016 3.94967 8.7016C3.20036 8.3775 2.22851 8.54971 1.75252 8.61064C1.27653 8.67158 0.9021 8.76254 0.9021 8.76254L0.912254 9.25884C0.912254 9.25884 1.24651 9.27915 1.26682 9.51184C1.28713 9.74454 1.49951 10.342 1.49951 10.342C1.49951 10.342 1.75252 11.2025 2.76499 11.2432C3.77747 11.2838 4.08125 10.9292 4.25345 10.6965C4.43581 10.4537 4.50646 9.88672 4.50646 9.88672C4.52677 9.35024 4.74932 9.40057 4.74932 9.40057C4.74932 9.40057 4.74931 9.40057 4.98201 9.40057C5.21471 9.40057 5.26549 9.57278 5.26549 9.57278L5.35644 10.0889C5.43239 10.345 5.54764 10.5261 5.62976 10.6356C5.72779 10.7658 5.98168 11.0948 6.42941 11.2127C6.63694 11.2674 6.80208 11.2542 6.94558 11.2432C7.11204 11.2299 7.49928 11.1946 7.87725 10.9191C8.01589 10.8179 8.22607 10.6647 8.34308 10.3927C8.42741 10.1967 8.48968 9.87745 8.50513 9.79532C8.53648 9.6262 8.54266 9.53304 8.6164 9.43104C8.7078 9.30476 8.84291 9.24736 8.9405 9.21821C8.9405 9.21821 8.9405 9.21821 8.9405 8.9449C8.94094 8.67114 8.7992 8.69145 8.7992 8.69145ZM4.04063 10.534C3.78541 10.8771 3.44321 10.995 3.32179 11.0303C2.73276 11.2017 2.24838 10.912 2.14727 10.848C2.05366 10.7888 1.79182 10.6175 1.6311 10.281C1.60063 10.2174 1.33835 9.64519 1.6311 9.16744C1.66156 9.11754 1.7225 9.02923 1.82361 8.9449C1.94636 8.84201 2.1614 8.7175 2.8564 8.72235C3.44056 8.72633 3.73243 8.72854 3.93996 8.89456C4.24771 9.14138 4.29319 9.52818 4.30423 9.62356C4.35943 10.0947 4.11216 10.4382 4.04063 10.534ZM8.27287 9.9269C8.25477 10.0519 8.17927 10.4462 7.82735 10.7469C7.47146 11.0515 7.06877 11.0581 6.916 11.0608C6.74997 11.0634 6.40645 11.0643 6.07573 10.8281C5.75958 10.602 5.64036 10.2916 5.59974 10.16C5.56397 10.0435 5.41517 9.50345 5.72116 9.10694C6.00773 8.7356 6.5058 8.73383 6.98664 8.73251C7.41715 8.73119 7.81985 8.72986 8.07992 9.02614C8.35765 9.34141 8.29274 9.78914 8.27287 9.9269Z" fill="#B48A00"/>
</svg>
